<svg aria-hidden="true" style="position: absolute; width: 0; height: 0; overflow: hidden;" version="1.1" xmlns="http://www.w3.org/2000/svg" xmlns:xlink="http://www.w3.org/1999/xlink">
<defs>
<symbol id="icon-journey" viewBox="0 0 35 32">
<path d="M29.116 30.779c-1.225 0-2.282-0.364-3.172-1.092s-1.45-1.6-1.681-2.617h-8.747c-1.875 0-3.427-0.615-4.657-1.846s-1.845-2.785-1.845-4.661c0-1.869 0.615-3.42 1.845-4.651s2.782-1.846 4.657-1.846h3.242c1.129 0 2.054-0.361 2.774-1.082s1.081-1.646 1.081-2.776-0.36-2.054-1.081-2.773c-0.721-0.72-1.646-1.080-2.774-1.080h-8.863c-0.266 1.016-0.837 1.888-1.712 2.616s-1.926 1.092-3.151 1.092c-1.407 0-2.598-0.487-3.571-1.461s-1.46-2.164-1.46-3.571c0-1.407 0.487-2.598 1.46-3.571s2.164-1.46 3.571-1.46c1.225 0 2.275 0.364 3.151 1.092s1.446 1.6 1.712 2.616h8.863c1.873 0 3.425 0.615 4.656 1.846s1.846 2.783 1.846 4.656-0.616 3.425-1.846 4.656c-1.231 1.231-2.783 1.846-4.656 1.846h-3.242c-1.131 0-2.056 0.36-2.776 1.080s-1.080 1.643-1.080 2.771c0 1.134 0.36 2.061 1.080 2.781s1.645 1.080 2.776 1.080h8.747c0.259-1.016 0.827-1.888 1.702-2.616s1.926-1.092 3.151-1.092c1.407 0 2.598 0.487 3.571 1.461s1.46 2.164 1.46 3.571c0 1.407-0.487 2.598-1.46 3.571s-2.164 1.46-3.571 1.46zM5.032 7.305c0.646 0 1.186-0.218 1.621-0.653s0.653-0.975 0.653-1.621c0-0.646-0.218-1.186-0.653-1.621s-0.975-0.653-1.621-0.653c-0.646 0-1.186 0.218-1.621 0.653s-0.653 0.975-0.653 1.621c0 0.646 0.218 1.186 0.653 1.621s0.975 0.653 1.621 0.653z"></path>
</symbol>
<symbol id="icon-logo" viewBox="0 0 75 32">
<path fill="#33adc1" style="fill: var(--color1, #33adc1)" d="M24.175 16c0 5.817-4.715 10.532-10.532 10.532-0.218 0-0.435-0.006-0.65-0.020-0.901-0.055-1.772-0.223-2.598-0.491-0.314-0.101-0.622-0.218-0.922-0.347-3.743-1.615-6.362-5.339-6.362-9.674 0-5.817 4.715-10.532 10.532-10.532s10.532 4.715 10.532 10.532z"></path>
<path fill="#eae0d3" style="fill: var(--color2, #eae0d3)" d="M12.993 26.512c-1.244-0.076-2.43-0.368-3.52-0.838 4.079-5.499-2.982-10.736-2.982-10.736l3.56-0.879c0-0 7.619 4.647 2.942 12.453z"></path>
<path fill="#d6c8b0" style="fill: var(--color3, #d6c8b0)" d="M10.395 26.021c-0.314-0.101-0.622-0.218-0.922-0.347 4.079-5.499-2.982-10.736-2.982-10.736l1.029-0.254c0.249 0.187 0.598 0.429 0.955 0.763 1.857 1.735 4.551 5.426 1.921 10.575z"></path>
<path fill="#eae0d3" style="fill: var(--color2, #eae0d3)" d="M12.592 11.329c0 2.274-1.843 4.117-4.117 4.117s-4.117-1.843-4.117-4.117c0-0.34 0.041-0.669 0.119-0.985s0.191-0.617 0.337-0.899l-1.701-1.701 2.788 0.373-1.43-1.773 3.27 0.934-0.356-1.809c0 0 2.845 1.573 4.196 3.156 0.102 0.117 0.198 0.241 0.287 0.369 0.458 0.664 0.727 1.468 0.727 2.336z"></path>
<path fill="#2f373b" style="fill: var(--color4, #2f373b)" d="M10.688 10.489c0 0.557-0.451 1.008-1.008 1.008s-1.008-0.452-1.008-1.008c0-0.557 0.451-1.008 1.008-1.008s1.008 0.451 1.008 1.008z"></path>
<path fill="#ff648d" style="fill: var(--color5, #ff648d)" d="M20.139 11.155c-0.414 0.216-0.85 0.167-1.201 0.051-0.41-0.135-0.701-0.361-0.701-0.361s-1.474-1.447-0.34-2.078c0.343-0.19 0.62-0.189 0.84-0.095h0c0.509 0.218 0.714 0.935 0.714 0.935s0.411-1.065 1.319-0.742c0.908 0.322 0.266 1.821-0.632 2.29z"></path>
<path fill="#ea2f69" style="fill: var(--color6, #ea2f69)" d="M18.938 11.206c-0.41-0.135-0.701-0.361-0.701-0.361s-1.474-1.447-0.34-2.078c0.343-0.19 0.62-0.189 0.84-0.095-0.502-0.028-0.518 1.822 0.201 2.534z"></path>
<path fill="#fff" style="fill: var(--color7, #fff)" d="M10.4 10.167c0 0.174-0.141 0.315-0.315 0.315s-0.315-0.141-0.315-0.315c0-0.174 0.141-0.315 0.315-0.315s0.315 0.141 0.315 0.315z"></path>
<path fill="#ff648d" style="fill: var(--color5, #ff648d)" d="M18.606 11.642c0 1.536-4.181 6.2-1.45 8.132 0.683 0.483 1.436 0.641 2.183 0.605 0.746 0.036 1.5-0.122 2.183-0.605 2.731-1.933-1.45-6.596-1.45-8.132z"></path>
<path fill="#ea2f69" style="fill: var(--color6, #ea2f69)" d="M19.226 20.384c-0.71 0.015-1.422-0.15-2.070-0.609-2.731-1.933 1.45-6.596 1.45-8.132h0.448c0 1.536-1.625 6.2-0.563 8.132 0.231 0.42 0.483 0.595 0.735 0.609z"></path>
<path fill="#ea2f69" style="fill: var(--color6, #ea2f69)" d="M19.226 20.383c0.037-0 0.075-0.002 0.112-0.003-0.037 0.005-0.075 0.006-0.112 0.003z"></path>
<path fill="#ea2f69" style="fill: var(--color6, #ea2f69)" d="M19.451 20.383c-0.037 0.003-0.075 0.001-0.112-0.003 0.037 0.002 0.075 0.003 0.112 0.003z"></path>
<path fill="#ffd62c" style="fill: var(--color8, #ffd62c)" d="M22.087 11.372l-10.42 1.722c0 0-0.364-0.552-0.496-1.283-0.118-0.652-0.052-1.447 0.622-2.121l10.294 1.681z"></path>
<path fill="#ffb92e" style="fill: var(--color9, #ffb92e)" d="M22.087 11.372l-10.42 1.722c0 0-0.364-0.552-0.496-1.283l10.916-0.44z"></path>
<path fill="#d6c8b0" style="fill: var(--color3, #d6c8b0)" d="M8.475 15.447c-2.274 0-4.117-1.843-4.117-4.117 0-0.34 0.041-0.669 0.119-0.985s0.191-0.617 0.337-0.899l-1.701-1.701 2.788 0.373-1.43-1.773 3.333 1.876c0 0-2.059 0.757-2.059 3.151s2.731 4.075 2.731 4.075z"></path>
<path fill="#000" style="fill: var(--color10, #000)" d="M67.267 20.584c-0.568 0-1.078-0.14-1.53-0.42-0.452-0.288-0.81-0.674-1.075-1.156-0.257-0.491-0.385-1.043-0.385-1.658s0.14-1.168 0.42-1.658c0.288-0.491 0.674-0.876 1.156-1.156 0.491-0.288 1.040-0.432 1.647-0.432s1.152 0.144 1.635 0.432c0.483 0.28 0.864 0.666 1.145 1.156 0.288 0.491 0.432 1.043 0.432 1.658h-0.455c0 0.615-0.132 1.168-0.397 1.658-0.257 0.483-0.611 0.868-1.063 1.156-0.452 0.28-0.962 0.42-1.53 0.42zM67.501 19.533c0.397 0 0.751-0.093 1.063-0.28 0.311-0.195 0.557-0.455 0.736-0.782 0.179-0.335 0.269-0.709 0.269-1.121 0-0.42-0.090-0.794-0.269-1.121-0.179-0.335-0.424-0.596-0.736-0.783-0.311-0.195-0.666-0.292-1.063-0.292-0.389 0-0.744 0.097-1.063 0.292-0.311 0.187-0.561 0.448-0.747 0.783-0.179 0.327-0.269 0.701-0.269 1.121 0 0.413 0.090 0.786 0.269 1.121 0.187 0.327 0.436 0.588 0.747 0.782 0.319 0.187 0.674 0.28 1.063 0.28zM70.117 20.549c-0.171 0-0.315-0.054-0.432-0.163-0.109-0.117-0.163-0.261-0.163-0.432v-1.787l0.222-1.238 0.969 0.42v2.604c0 0.171-0.058 0.315-0.175 0.432-0.109 0.109-0.249 0.163-0.42 0.163z"></path>
<path fill="#000" style="fill: var(--color10, #000)" d="M63.423 20.398c-0.101 0.093-0.245 0.14-0.432 0.14-0.179-0.008-0.319-0.062-0.42-0.163l-2.838-3.048 2.675-2.99c0.101-0.109 0.241-0.171 0.42-0.187 0.187-0.016 0.331 0.023 0.432 0.117 0.117 0.109 0.183 0.234 0.199 0.374 0.016 0.132-0.027 0.253-0.129 0.362l-2.114 2.266 2.242 2.406c0.101 0.101 0.152 0.222 0.152 0.362 0 0.132-0.062 0.253-0.187 0.362zM58.798 20.549c-0.171 0-0.308-0.055-0.409-0.164-0.101-0.117-0.152-0.261-0.152-0.432v-5.209c0-0.179 0.051-0.323 0.152-0.432s0.237-0.164 0.409-0.164c0.179 0 0.323 0.054 0.432 0.164 0.117 0.109 0.175 0.253 0.175 0.432v1.95h1.495v1.098h-1.495v2.161c0 0.171-0.058 0.315-0.175 0.432-0.109 0.109-0.253 0.164-0.432 0.164z"></path>
<path fill="#000" style="fill: var(--color10, #000)" d="M53.868 20.584c-0.646 0-1.222-0.136-1.728-0.409-0.498-0.28-0.891-0.662-1.18-1.145-0.28-0.491-0.42-1.051-0.42-1.682 0-0.638 0.132-1.199 0.397-1.682 0.273-0.491 0.646-0.872 1.121-1.145 0.475-0.28 1.020-0.42 1.635-0.42 0.607 0 1.129 0.136 1.565 0.409 0.436 0.265 0.767 0.635 0.993 1.109 0.234 0.467 0.35 1.008 0.35 1.623 0 0.148-0.051 0.273-0.152 0.374-0.101 0.093-0.23 0.14-0.385 0.14h-4.707v-0.934h4.672l-0.479 0.327c-0.008-0.389-0.086-0.736-0.234-1.039-0.148-0.311-0.358-0.557-0.631-0.736s-0.603-0.269-0.993-0.269c-0.444 0-0.825 0.097-1.145 0.292-0.311 0.195-0.549 0.463-0.712 0.806-0.163 0.335-0.245 0.716-0.245 1.145s0.097 0.81 0.292 1.145c0.195 0.335 0.463 0.599 0.806 0.794s0.736 0.292 1.18 0.292c0.241 0 0.487-0.043 0.736-0.128 0.257-0.093 0.463-0.199 0.619-0.315 0.117-0.086 0.241-0.128 0.374-0.128 0.14-0.008 0.261 0.031 0.362 0.117 0.132 0.117 0.202 0.245 0.21 0.385s-0.054 0.261-0.187 0.362c-0.265 0.21-0.596 0.381-0.993 0.514-0.389 0.132-0.763 0.199-1.121 0.199z"></path>
<path fill="#000" style="fill: var(--color10, #000)" d="M46.29 14.16c0.117 0 0.222 0.031 0.315 0.093s0.167 0.16 0.222 0.292l2.406 5.221c0.070 0.156 0.078 0.296 0.023 0.42-0.054 0.117-0.148 0.206-0.28 0.269-0.171 0.078-0.319 0.097-0.444 0.058s-0.23-0.136-0.315-0.292l-2.196-4.987h0.596l-2.266 4.987c-0.070 0.148-0.175 0.245-0.315 0.292-0.132 0.039-0.28 0.020-0.444-0.058-0.148-0.070-0.253-0.164-0.315-0.28-0.055-0.117-0.043-0.253 0.035-0.409l2.418-5.221c0.117-0.257 0.304-0.385 0.561-0.385z"></path>
<path fill="#000" style="fill: var(--color10, #000)" d="M39.526 20.584c-0.646 0-1.222-0.136-1.728-0.409-0.498-0.28-0.892-0.662-1.18-1.145-0.28-0.491-0.42-1.051-0.42-1.682 0-0.638 0.132-1.199 0.397-1.682 0.273-0.491 0.646-0.872 1.121-1.145 0.475-0.28 1.020-0.42 1.635-0.42 0.607 0 1.129 0.136 1.565 0.409 0.436 0.265 0.767 0.635 0.993 1.109 0.234 0.467 0.35 1.008 0.35 1.623 0 0.148-0.051 0.273-0.152 0.374-0.101 0.093-0.23 0.14-0.385 0.14h-4.707v-0.934h4.672l-0.479 0.327c-0.008-0.389-0.086-0.736-0.234-1.039-0.148-0.311-0.358-0.557-0.631-0.736s-0.603-0.269-0.993-0.269c-0.444 0-0.825 0.097-1.145 0.292-0.311 0.195-0.549 0.463-0.712 0.806-0.164 0.335-0.245 0.716-0.245 1.145s0.097 0.81 0.292 1.145c0.195 0.335 0.463 0.599 0.806 0.794s0.736 0.292 1.18 0.292c0.241 0 0.487-0.043 0.736-0.128 0.257-0.093 0.463-0.199 0.619-0.315 0.117-0.086 0.241-0.128 0.374-0.128 0.14-0.008 0.261 0.031 0.362 0.117 0.132 0.117 0.202 0.245 0.21 0.385s-0.054 0.261-0.187 0.362c-0.265 0.21-0.596 0.381-0.993 0.514-0.389 0.132-0.763 0.199-1.121 0.199z"></path>
<path fill="#000" style="fill: var(--color10, #000)" d="M28.111 20.537c-0.218 0-0.385-0.093-0.502-0.28s-0.128-0.385-0.035-0.596l3.282-7.837c0.117-0.273 0.308-0.409 0.572-0.409 0.28 0 0.471 0.136 0.572 0.409l3.293 7.86c0.086 0.218 0.074 0.417-0.035 0.596-0.101 0.171-0.265 0.257-0.491 0.257-0.117 0-0.23-0.031-0.339-0.093-0.101-0.070-0.175-0.163-0.222-0.28l-2.92-7.194h0.374l-2.99 7.194c-0.054 0.125-0.136 0.218-0.245 0.28-0.101 0.062-0.206 0.093-0.315 0.093z"></path>
</symbol>
<symbol id="icon-menu" viewBox="0 0 32 32">
<path d="M5.333 8h21.333v2.667h-21.333v-2.667zM5.333 14.667h21.333v2.667h-21.333v-2.667zM5.333 21.333h21.333v2.667h-21.333v-2.667z"></path>
</symbol>
<symbol id="icon-my-day" viewBox="0 0 29 32">
<path d="M9.152 22.006c-1.037 0-1.911-0.358-2.622-1.074s-1.067-1.592-1.067-2.629c0-1.037 0.358-1.911 1.074-2.622s1.592-1.067 2.629-1.067c1.036 0 1.91 0.358 2.621 1.074s1.067 1.592 1.067 2.629c0 1.037-0.358 1.91-1.074 2.621s-1.592 1.067-2.629 1.067zM2.595 30.941c-0.701 0-1.309-0.257-1.823-0.772s-0.772-1.122-0.772-1.823v-23.455c0-0.704 0.257-1.313 0.772-1.83s1.122-0.775 1.823-0.775h2.394v-0.985c0-0.364 0.126-0.672 0.379-0.924s0.561-0.377 0.923-0.377c0.373 0 0.688 0.126 0.944 0.377s0.384 0.559 0.384 0.924v0.985h12.642v-0.985c0-0.364 0.127-0.672 0.38-0.924s0.561-0.377 0.923-0.377c0.373 0 0.688 0.126 0.944 0.377s0.384 0.559 0.384 0.924v0.985h2.394c0.704 0 1.314 0.258 1.83 0.775s0.775 1.126 0.775 1.83v23.455c0 0.701-0.258 1.309-0.775 1.823s-1.126 0.772-1.83 0.772h-22.693zM2.595 28.345h22.693v-16.299h-22.693v16.299zM2.595 9.761h22.693v-4.87h-22.693v4.87z"></path>
</symbol>
<symbol id="icon-profile" viewBox="0 0 32 32">
<path d="M5.674 23.946c1.594-1.105 3.175-1.953 4.744-2.544s3.253-0.886 5.052-0.886c1.8 0 3.492 0.298 5.076 0.893s3.167 1.441 4.75 2.537c1.106-1.378 1.889-2.751 2.349-4.12s0.691-2.82 0.691-4.351c0-3.654-1.231-6.712-3.694-9.176s-5.521-3.695-9.174-3.695c-3.653 0-6.712 1.232-9.176 3.695s-3.696 5.522-3.696 9.176c0 1.531 0.235 2.98 0.706 4.348s1.261 2.742 2.373 4.123zM15.459 16.681c-1.488 0-2.737-0.508-3.749-1.525s-1.518-2.267-1.518-3.751 0.508-2.733 1.525-3.748c1.017-1.015 2.269-1.523 3.756-1.523s2.737 0.51 3.749 1.53c1.012 1.020 1.518 2.272 1.518 3.755s-0.508 2.732-1.525 3.744c-1.017 1.012-2.269 1.518-3.756 1.518zM15.479 30.941c-2.121 0-4.122-0.405-6.003-1.216s-3.525-1.92-4.932-3.327c-1.407-1.407-2.517-3.048-3.328-4.923s-1.216-3.878-1.216-6.010c0-2.125 0.406-4.123 1.218-5.995s1.921-3.51 3.326-4.915c1.405-1.405 3.045-2.516 4.921-3.331s3.879-1.223 6.011-1.223c2.125 0 4.123 0.408 5.995 1.223s3.51 1.926 4.915 3.331c1.405 1.405 2.516 3.044 3.331 4.917s1.223 3.87 1.223 5.991c0 2.121-0.408 4.122-1.223 6.004s-1.926 3.525-3.331 4.93c-1.405 1.405-3.044 2.514-4.917 3.326s-3.87 1.218-5.991 1.218zM15.466 28.345c1.379 0 2.719-0.197 4.023-0.591s2.602-1.090 3.897-2.088c-1.301-0.908-2.607-1.596-3.916-2.063s-2.644-0.701-4.003-0.701-2.692 0.234-3.999 0.701c-1.306 0.467-2.61 1.155-3.912 2.063 1.295 0.998 2.593 1.694 3.893 2.088s2.639 0.591 4.018 0.591zM15.466 14.286c0.845 0 1.535-0.267 2.073-0.801s0.806-1.225 0.806-2.073-0.269-1.541-0.806-2.078c-0.537-0.537-1.228-0.806-2.073-0.806s-1.535 0.269-2.073 0.806c-0.537 0.537-0.806 1.229-0.806 2.078s0.269 1.539 0.806 2.073c0.537 0.534 1.228 0.801 2.073 0.801z"></path>
</symbol>
<symbol id="icon-rest" viewBox="0 0 39 32">
<path d="M6.844 31.071c-0.383 0-0.718-0.146-1.004-0.437s-0.429-0.629-0.429-1.013v-1.874h-0.547c-1.351 0-2.5-0.473-3.445-1.418s-1.418-2.094-1.418-3.445v-10.274c0-1.447 0.433-2.561 1.3-3.34s1.893-1.193 3.079-1.24v-3.42c0-1.356 0.429-2.463 1.288-3.322s1.967-1.288 3.322-1.288h19.579c1.355 0 2.456 0.429 3.301 1.288s1.267 1.967 1.267 3.322v3.42c1.186 0.047 2.212 0.46 3.079 1.24s1.3 1.893 1.3 3.34v10.274c0 1.351-0.473 2.499-1.418 3.445s-2.094 1.418-3.445 1.418h-0.547v1.874c0 0.384-0.143 0.722-0.429 1.013s-0.621 0.437-1.005 0.437-0.719-0.146-1.005-0.437c-0.286-0.291-0.429-0.629-0.429-1.013v-1.874h-20.947v1.877c0 0.385-0.145 0.723-0.435 1.012s-0.627 0.435-1.010 0.435zM4.863 24.879h27.789c0.53 0 0.995-0.201 1.395-0.603s0.6-0.866 0.6-1.392v-10.274c0-0.525-0.159-0.947-0.476-1.265s-0.739-0.477-1.267-0.477c-0.528 0-0.95 0.159-1.266 0.477s-0.475 0.74-0.475 1.265v7.521h-24.811v-7.521c0-0.525-0.159-0.947-0.476-1.265s-0.739-0.477-1.267-0.477c-0.527 0-0.949 0.159-1.266 0.477s-0.475 0.74-0.475 1.265v10.274c0 0.526 0.201 0.99 0.603 1.392s0.866 0.603 1.392 0.603zM9.221 17.263h19.074v-4.653c0-0.896 0.204-1.653 0.614-2.27s0.862-1.11 1.36-1.478v-4.252c0-0.53-0.158-0.953-0.473-1.269s-0.735-0.473-1.258-0.473h-19.559c-0.518 0-0.937 0.158-1.254 0.473s-0.477 0.739-0.477 1.269v4.252c0.497 0.368 0.951 0.861 1.36 1.478s0.613 1.374 0.613 2.27v4.653z"></path>
</symbol>
<symbol id="icon-right-arrow" viewBox="0 0 19 32">
<path stroke-linejoin="miter" stroke-linecap="butt" stroke-miterlimit="4" stroke-width="2.6667" d="M2.339 1.333c0.269 0 0.474 0.081 0.682 0.289l13.185 13.185c0.144 0.144 0.211 0.256 0.242 0.331v0.003c0.039 0.095 0.063 0.201 0.063 0.331s-0.023 0.236-0.063 0.331v0.003c-0.031 0.075-0.099 0.187-0.242 0.331l-13.25 13.25c-0.207 0.207-0.386 0.266-0.602 0.258-0.251-0.009-0.466-0.094-0.695-0.323-0.208-0.208-0.292-0.413-0.292-0.682s0.083-0.474 0.292-0.682l12.484-12.484-12.552-12.552c-0.207-0.207-0.266-0.384-0.258-0.599 0.009-0.251 0.096-0.468 0.326-0.698 0.208-0.208 0.411-0.289 0.68-0.289z"></path>
</symbol>
<symbol id="icon-star" viewBox="0 0 37 32">
<path d="M31.065 21.648c0.307-0.302 0.669-0.453 1.085-0.453s0.777 0.151 1.084 0.453l2.715 2.759c0.302 0.303 0.453 0.657 0.453 1.062s-0.151 0.759-0.454 1.065c-0.303 0.306-0.657 0.458-1.065 0.458s-0.763-0.154-1.067-0.464l-2.749-2.715c-0.309-0.305-0.463-0.666-0.463-1.085s0.153-0.779 0.46-1.081zM32.235 0.459c0.302 0.306 0.453 0.667 0.453 1.085s-0.151 0.776-0.453 1.076l-2.715 2.726c-0.309 0.302-0.671 0.453-1.087 0.453s-0.776-0.152-1.079-0.456c-0.309-0.306-0.463-0.669-0.463-1.087s0.154-0.777 0.463-1.077l2.749-2.726c0.305-0.302 0.662-0.453 1.068-0.453s0.762 0.153 1.064 0.459zM4.16 0.458c0.304-0.305 0.665-0.458 1.083-0.458s0.779 0.151 1.081 0.453l2.726 2.76c0.302 0.305 0.453 0.661 0.453 1.068s-0.15 0.762-0.449 1.064c-0.3 0.302-0.654 0.453-1.063 0.453s-0.763-0.151-1.063-0.453l-2.77-2.726c-0.302-0.303-0.453-0.662-0.453-1.078s0.152-0.777 0.456-1.083zM5.334 21.651c0.302 0.303 0.453 0.664 0.453 1.083s-0.151 0.778-0.453 1.081l-2.715 2.715c-0.305 0.309-0.666 0.464-1.085 0.464s-0.779-0.15-1.081-0.451c-0.302-0.301-0.453-0.655-0.453-1.063s0.151-0.765 0.453-1.072l2.76-2.759c0.303-0.302 0.657-0.453 1.062-0.453s0.758 0.152 1.060 0.456zM11.626 26.224l6.572-3.947 6.583 3.992-1.761-7.454 5.804-5.057-7.641-0.669-2.987-7.052-2.973 7.007-7.644 0.68 5.808 5.049-1.761 7.45zM18.196 25.817l-8.054 4.861c-0.272 0.176-0.561 0.25-0.867 0.223s-0.574-0.123-0.807-0.285c-0.233-0.162-0.408-0.378-0.525-0.649s-0.14-0.575-0.067-0.914l2.125-9.178-7.119-6.217c-0.265-0.229-0.425-0.488-0.48-0.776s-0.049-0.568 0.017-0.839c0.066-0.271 0.219-0.5 0.459-0.688s0.528-0.297 0.867-0.326l9.403-0.828 3.634-8.672c0.125-0.309 0.321-0.539 0.586-0.69s0.538-0.227 0.818-0.227 0.556 0.076 0.827 0.227c0.271 0.151 0.471 0.381 0.599 0.69l3.642 8.676 9.406 0.823c0.332 0.030 0.617 0.138 0.856 0.326s0.392 0.417 0.459 0.688c0.066 0.271 0.074 0.551 0.022 0.84s-0.21 0.548-0.476 0.776l-7.119 6.217 2.124 9.188c0.066 0.332 0.038 0.632-0.084 0.9s-0.294 0.492-0.514 0.671c-0.229 0.159-0.496 0.25-0.801 0.273s-0.594-0.051-0.866-0.22l-8.065-4.871z"></path>
</symbol>
<symbol id="icon-trash" viewBox="0 0 29 32">
<path d="M4.776 31.011c-0.799 0-1.478-0.279-2.038-0.837s-0.84-1.236-0.84-2.031v-23.829h-0.463c-0.405 0-0.745-0.139-1.021-0.416s-0.413-0.619-0.413-1.026c0-0.407 0.138-0.747 0.413-1.019s0.616-0.408 1.021-0.408h6.914c0-0.412 0.138-0.755 0.414-1.031s0.616-0.413 1.021-0.413h8.579c0.405 0 0.745 0.14 1.021 0.419s0.413 0.621 0.413 1.025h6.924c0.405 0 0.745 0.139 1.021 0.416s0.413 0.619 0.413 1.026c0 0.407-0.138 0.747-0.413 1.019s-0.616 0.408-1.021 0.408h-0.463v23.829c0 0.796-0.28 1.473-0.84 2.031s-1.24 0.837-2.038 0.837h-18.603zM23.379 4.313h-18.603v23.829h18.603v-23.829zM14.078 18.258l3.962 3.994c0.294 0.301 0.651 0.456 1.071 0.467s0.78-0.138 1.081-0.446c0.294-0.317 0.441-0.676 0.441-1.077s-0.147-0.753-0.441-1.053l-3.962-4.036 3.962-4.046c0.294-0.294 0.441-0.644 0.441-1.050s-0.147-0.759-0.441-1.060c-0.301-0.294-0.661-0.441-1.081-0.441s-0.777 0.147-1.071 0.441l-3.962 4.004-3.92-4.004c-0.294-0.294-0.649-0.441-1.066-0.441s-0.775 0.147-1.076 0.441c-0.294 0.301-0.441 0.661-0.441 1.081s0.147 0.777 0.441 1.071l3.952 4.004-3.952 4.004c-0.301 0.294-0.449 0.649-0.446 1.066s0.152 0.775 0.446 1.076c0.303 0.294 0.662 0.441 1.077 0.441s0.774-0.147 1.075-0.441l3.909-3.994z"></path>
</symbol>
<symbol id="icon-activity" viewBox="0 0 32 32">
<path d="M6.98 8.904l-4.764 4.763c-0.266 0.266-0.573 0.397-0.921 0.394s-0.656-0.138-0.922-0.403c-0.239-0.239-0.363-0.539-0.373-0.901s0.104-0.676 0.343-0.941l1.344-1.375-1.276-1.285c-0.272-0.272-0.408-0.592-0.408-0.96s0.136-0.688 0.408-0.96l2.455-2.455-0.716-0.706c-0.278-0.272-0.418-0.592-0.418-0.96s0.136-0.684 0.408-0.95c0.245-0.252 0.557-0.383 0.935-0.393s0.703 0.107 0.975 0.353l0.746 0.725 2.415-2.415c0.272-0.272 0.592-0.408 0.96-0.408s0.691 0.136 0.969 0.408l1.276 1.276 1.384-1.354c0.265-0.239 0.574-0.358 0.926-0.358s0.657 0.129 0.916 0.388c0.266 0.272 0.398 0.582 0.398 0.931s-0.133 0.656-0.398 0.921l-4.754 4.754 14.964 14.964 4.754-4.754c0.266-0.266 0.574-0.398 0.926-0.398s0.661 0.133 0.926 0.398c0.239 0.239 0.363 0.541 0.373 0.906s-0.104 0.677-0.343 0.936l-1.354 1.384 1.276 1.276c0.272 0.279 0.408 0.602 0.408 0.969s-0.136 0.688-0.408 0.96l-2.495 2.495 0.725 0.706c0.272 0.272 0.408 0.592 0.408 0.96s-0.136 0.684-0.408 0.95c-0.272 0.272-0.59 0.408-0.955 0.408s-0.683-0.139-0.955-0.418l-0.706-0.716-2.415 2.415c-0.272 0.272-0.592 0.408-0.96 0.408s-0.688-0.136-0.96-0.408l-1.285-1.276-1.384 1.354c-0.265 0.239-0.572 0.356-0.921 0.353s-0.653-0.134-0.912-0.393c-0.272-0.266-0.408-0.573-0.408-0.922s0.136-0.659 0.408-0.931l4.754-4.754-14.964-14.964z"></path>
</symbol>
<symbol id="icon-add" viewBox="0 0 32 32">
<path d="M14.383 16.825v5.127c0 0.339 0.114 0.624 0.342 0.853s0.516 0.344 0.862 0.344c0.346 0 0.631-0.113 0.855-0.34s0.336-0.514 0.336-0.859v-5.124h5.165c0.339 0 0.624-0.114 0.853-0.342s0.344-0.516 0.344-0.862c0-0.346-0.113-0.631-0.34-0.855s-0.514-0.336-0.859-0.336h-5.162v-5.431c0-0.339-0.114-0.624-0.342-0.853s-0.516-0.344-0.862-0.344c-0.346 0-0.631 0.113-0.855 0.34s-0.336 0.514-0.336 0.859v5.429h-5.393c-0.339 0-0.624 0.114-0.853 0.342s-0.344 0.516-0.344 0.862c0 0.346 0.113 0.631 0.34 0.855s0.514 0.336 0.859 0.336h5.391zM15.477 30.941c-2.138 0-4.145-0.405-6.021-1.214s-3.515-1.917-4.92-3.322c-1.405-1.405-2.512-3.046-3.322-4.922s-1.214-3.885-1.214-6.026c0-2.14 0.405-4.149 1.214-6.027s1.916-3.512 3.32-4.904c1.404-1.393 3.044-2.495 4.921-3.307s3.886-1.219 6.027-1.219c2.141 0 4.15 0.406 6.028 1.218s3.513 1.914 4.905 3.306c1.392 1.392 2.494 3.028 3.306 4.91s1.218 3.892 1.218 6.032c0 2.139-0.406 4.147-1.219 6.022s-1.915 3.513-3.307 4.912c-1.392 1.399-3.029 2.506-4.909 3.321s-3.89 1.221-6.028 1.221zM15.485 28.345c3.569 0 6.604-1.254 9.103-3.762s3.749-5.551 3.749-9.128c0-3.569-1.247-6.604-3.742-9.103s-5.539-3.749-9.133-3.749c-3.56 0-6.594 1.247-9.103 3.742s-3.763 5.539-3.763 9.133c0 3.56 1.254 6.594 3.762 9.103s5.551 3.763 9.128 3.763z"></path>
</symbol>
<symbol id="icon-check" viewBox="0 0 32 32">
<path d="M10.45 21.84l-7.311-7.311-3.139 3.139 10.45 10.45 21.55-21.55-3.139-3.139-18.411 18.411z"></path>
</symbol>
<symbol id="icon-close" viewBox="0 0 32 32">
<path stroke-linejoin="miter" stroke-linecap="butt" stroke-miterlimit="4" stroke-width="2.2857" d="M27.828 1.143c0.376 0 0.609 0.111 0.792 0.295s0.294 0.416 0.295 0.79c0 0.375-0.111 0.609-0.295 0.792l-12.009 12.009 12.009 12.007c0.184 0.184 0.295 0.417 0.295 0.792s-0.111 0.609-0.295 0.792-0.417 0.295-0.792 0.295c-0.375 0-0.609-0.111-0.792-0.295l-12.007-12.009-12.009 12.009c-0.184 0.184-0.417 0.295-0.792 0.295s-0.607-0.111-0.79-0.295c-0.184-0.184-0.295-0.417-0.295-0.792s0.111-0.609 0.295-0.792l12.007-12.007-12.007-12.009c-0.184-0.184-0.295-0.417-0.295-0.792s0.111-0.607 0.295-0.79 0.415-0.294 0.79-0.295c0.375 0 0.609 0.111 0.792 0.295l12.009 12.007 12.007-12.007c0.184-0.184 0.417-0.295 0.792-0.295z"></path>
</symbol>
<symbol id="icon-diary" viewBox="0 0 26 32">
<path d="M2.532 21.497c0.361-0.231 0.754-0.407 1.177-0.527s0.877-0.181 1.362-0.181h1.27v-18.258h-1.27c-0.713 0-1.315 0.246-1.805 0.739s-0.734 1.096-0.734 1.809v16.417zM8.873 20.79h13.441v-18.258h-13.441v18.258zM5.071 30.941c-1.404 0-2.6-0.494-3.588-1.483s-1.483-2.185-1.483-3.588v-20.79c0-1.406 0.494-2.604 1.483-3.595s2.184-1.485 3.588-1.485h17.17c0.723 0 1.337 0.253 1.844 0.76s0.76 1.122 0.76 1.844v19.71c0 0.248-0.064 0.474-0.19 0.675s-0.29 0.344-0.488 0.426c-0.464 0.192-0.829 0.505-1.093 0.939s-0.396 0.935-0.396 1.503 0.131 1.067 0.394 1.498c0.263 0.431 0.626 0.741 1.090 0.928 0.219 0.096 0.388 0.262 0.506 0.5s0.177 0.526 0.177 0.864v0.042c0 0.346-0.123 0.64-0.368 0.884s-0.546 0.366-0.902 0.366h-18.504zM5.053 28.409h15.771c-0.214-0.361-0.381-0.76-0.5-1.197s-0.178-0.884-0.178-1.341c0-0.484 0.060-0.938 0.18-1.362s0.299-0.819 0.536-1.187h-15.807c-0.697 0-1.292 0.246-1.785 0.739s-0.739 1.096-0.739 1.809c0 0.707 0.246 1.308 0.739 1.8s1.087 0.739 1.782 0.739z"></path>
</symbol>
<symbol id="icon-down-arrow" viewBox="0 0 32 32">
<path d="M15.44 24.476c-0.299 0-0.58-0.055-0.845-0.165s-0.519-0.287-0.763-0.531l-13.184-13.184c-0.453-0.453-0.669-0.995-0.647-1.625s0.26-1.171 0.713-1.625c0.453-0.453 0.995-0.68 1.625-0.68s1.171 0.227 1.625 0.68l11.475 11.542 11.542-11.542c0.453-0.453 0.984-0.669 1.591-0.647s1.138 0.26 1.591 0.713 0.68 0.995 0.68 1.625c0 0.63-0.227 1.171-0.68 1.625l-13.117 13.117c-0.244 0.244-0.498 0.42-0.763 0.531s-0.546 0.165-0.845 0.165z"></path>
</symbol>
<symbol id="icon-edit" viewBox="0 0 32 32">
<path d="M2.595 31.074c-0.701 0-1.309-0.257-1.823-0.772s-0.772-1.122-0.772-1.823v-22.693c0-0.704 0.257-1.313 0.772-1.83s1.122-0.775 1.823-0.775h12.294c0.436 0 0.762 0.135 0.98 0.405s0.326 0.566 0.326 0.89c0 0.324-0.11 0.623-0.329 0.898s-0.542 0.412-0.968 0.412h-12.303v22.693h22.693v-12.408c0-0.427 0.135-0.749 0.405-0.969s0.567-0.329 0.89-0.329 0.623 0.11 0.898 0.329c0.275 0.219 0.412 0.542 0.412 0.969v12.408c0 0.701-0.258 1.309-0.775 1.823s-1.126 0.772-1.83 0.772h-22.693zM9.261 20.515v-4.253c0-0.357 0.071-0.697 0.213-1.021s0.333-0.605 0.573-0.845l13.666-13.657c0.259-0.259 0.547-0.447 0.862-0.563s0.635-0.175 0.957-0.175c0.315 0 0.636 0.065 0.963 0.194s0.624 0.324 0.892 0.582l2.87 2.899c0.255 0.264 0.45 0.553 0.584 0.866s0.202 0.632 0.202 0.956c0 0.326-0.066 0.656-0.197 0.99s-0.328 0.631-0.589 0.892l-13.581 13.657c-0.24 0.24-0.521 0.429-0.845 0.568s-0.664 0.209-1.021 0.209h-4.253c-0.366 0-0.674-0.125-0.924-0.374s-0.374-0.557-0.374-0.924zM11.729 19.345h3.138l9.574-9.575-1.58-1.554-1.587-1.546-9.546 9.498v3.176z"></path>
</symbol>
<symbol id="icon-exit" viewBox="0 0 32 32">
<path d="M3.711 30.829c-0.775 0-1.446-0.284-2.015-0.853s-0.853-1.241-0.853-2.015v-25.082c0-0.778 0.284-1.452 0.853-2.022s1.24-0.856 2.015-0.856h11.125c0.405 0 0.745 0.141 1.021 0.421s0.413 0.625 0.413 1.031c0 0.406-0.138 0.746-0.413 1.018s-0.616 0.408-1.021 0.408h-11.125v25.082h11.125c0.405 0 0.745 0.139 1.021 0.416s0.413 0.619 0.413 1.026c0 0.407-0.138 0.747-0.413 1.019s-0.616 0.408-1.021 0.408h-11.125zM26.175 16.854h-13.602c-0.405 0-0.745-0.139-1.021-0.416s-0.413-0.619-0.413-1.026c0-0.407 0.138-0.746 0.413-1.019s0.616-0.408 1.021-0.408h13.517l-3.239-3.239c-0.286-0.288-0.422-0.625-0.408-1.011s0.164-0.721 0.451-1.004c0.286-0.289 0.627-0.432 1.023-0.429s0.739 0.148 1.029 0.434l5.721 5.721c0.279 0.289 0.419 0.624 0.419 1.007s-0.14 0.717-0.419 1.003l-5.679 5.679c-0.281 0.286-0.614 0.424-1.001 0.413s-0.729-0.159-1.026-0.445c-0.275-0.286-0.415-0.628-0.419-1.025s0.141-0.74 0.435-1.027l3.197-3.207z"></path>
</symbol>
<symbol id="icon-food" viewBox="0 0 29 32">
<path d="M6.186 30.941c-0.368 0-0.676-0.125-0.922-0.374s-0.369-0.557-0.369-0.924v-12.993c-1.521-0.381-2.717-1.102-3.588-2.163s-1.307-2.303-1.307-3.725v-9.491c0-0.356 0.123-0.657 0.368-0.902s0.545-0.368 0.901-0.368 0.655 0.123 0.898 0.368c0.243 0.245 0.365 0.546 0.365 0.902v8.194h2.4v-8.194c0-0.356 0.123-0.657 0.368-0.902s0.545-0.368 0.901-0.368 0.655 0.123 0.898 0.368c0.243 0.245 0.365 0.546 0.365 0.902v8.194h2.438v-8.194c0-0.356 0.123-0.657 0.368-0.902s0.546-0.368 0.901-0.368 0.655 0.123 0.898 0.368c0.243 0.245 0.365 0.546 0.365 0.902v9.474c0 1.428-0.439 2.667-1.317 3.719s-2.086 1.778-3.626 2.176v13.004c0 0.366-0.125 0.674-0.376 0.924s-0.56 0.374-0.928 0.374zM22.347 30.941c-0.368 0-0.675-0.125-0.921-0.374s-0.369-0.557-0.369-0.924v-13.651c-1.454-0.518-2.615-1.479-3.484-2.885s-1.304-3.070-1.304-4.992c0-2.256 0.594-4.173 1.783-5.75s2.623-2.365 4.303-2.365c1.68 0 3.114 0.791 4.303 2.373s1.783 3.496 1.783 5.742c0 1.918-0.435 3.583-1.304 4.994s-2.027 2.385-3.475 2.924v13.611c0 0.366-0.127 0.674-0.381 0.924s-0.566 0.374-0.933 0.374z"></path>
</symbol>
<symbol id="icon-google" viewBox="0 0 32 32">
<path d="M32 15.627c0 7.378-3.929 16.373-15.769 16.373-8.898 0.059-16.163-7.102-16.231-16 0.068-8.898 7.333-16.059 16.231-16 3.681 0.014 7.251 1.266 10.133 3.556 0.199 0.163 0.322 0.401 0.338 0.658 0.001 0.26-0.101 0.509-0.284 0.693-1.157 1.058-2.261 2.174-3.307 3.342-0.304 0.335-0.814 0.381-1.173 0.107-1.642-1.216-3.647-1.842-5.689-1.778-5.253 0-9.511 4.258-9.511 9.511s4.258 9.511 9.511 9.511c5.333 0 7.591-2.276 8.764-6.311h-8.124c-0.491 0-0.889-0.398-0.889-0.889v-4.711c0-0.491 0.398-0.889 0.889-0.889h14.222c0.409-0.003 0.755 0.304 0.8 0.711 0.066 0.703 0.096 1.409 0.089 2.116z"></path>
</symbol>
<symbol id="icon-cube" viewBox="0 0 27 32">
<path d="M27.022 8.564l-0.213-0.381c-0.275-0.461-0.663-0.844-1.128-1.112l-10.225-5.897c-0.463-0.269-0.989-0.41-1.524-0.411h-0.442c-0.535 0.001-1.061 0.143-1.524 0.411l-10.225 5.912c-0.462 0.267-0.845 0.651-1.112 1.112l-0.213 0.381c-0.269 0.463-0.41 0.989-0.411 1.524v11.809c0.001 0.535 0.143 1.061 0.411 1.524l0.213 0.381c0.274 0.456 0.656 0.838 1.112 1.112l10.24 5.897c0.461 0.274 0.988 0.416 1.524 0.411h0.427c0.535-0.001 1.061-0.143 1.524-0.411l10.225-5.912c0.466-0.261 0.851-0.646 1.112-1.112l0.229-0.381c0.265-0.464 0.407-0.989 0.411-1.524v-11.81c-0.001-0.535-0.143-1.061-0.411-1.524zM13.49 3.809h0.442l8.93 5.151-9.143 5.272-9.143-5.272 8.914-5.151zM15.243 27.429l8.914-5.151 0.229-0.381v-10.301l-9.143 5.288v10.545z"></path>
</symbol>
<symbol id="icon-up-arrow" viewBox="0 0 55 32">
<path d="M26.408 9.551l-19.786 19.786c-0.777 0.777-1.687 1.147-2.728 1.109s-1.951-0.446-2.728-1.223c-0.777-0.777-1.166-1.706-1.166-2.785s0.389-2.008 1.166-2.785l22.487-22.487c0.777-0.777 1.696-1.166 2.755-1.166s1.978 0.389 2.755 1.166l22.601 22.601c0.777 0.777 1.166 1.686 1.166 2.728s-0.389 1.951-1.166 2.728c-0.777 0.777-1.706 1.166-2.785 1.166s-2.008-0.389-2.785-1.166l-19.786-19.672z"></path>
</symbol>
</defs>
</svg>
