<!-- Generated by IcoMoon.io -->
<svg version="1.1" xmlns="http://www.w3.org/2000/svg" width="32" height="32" viewBox="0 0 32 32">
<path d="M6.98 8.904l-4.764 4.763c-0.266 0.266-0.573 0.397-0.921 0.394s-0.656-0.138-0.922-0.403c-0.239-0.239-0.363-0.539-0.373-0.901s0.104-0.676 0.343-0.941l1.344-1.375-1.276-1.285c-0.272-0.272-0.408-0.592-0.408-0.96s0.136-0.688 0.408-0.96l2.455-2.455-0.716-0.706c-0.278-0.272-0.418-0.592-0.418-0.96s0.136-0.684 0.408-0.95c0.245-0.252 0.557-0.383 0.935-0.393s0.703 0.107 0.975 0.353l0.746 0.725 2.415-2.415c0.272-0.272 0.592-0.408 0.96-0.408s0.691 0.136 0.969 0.408l1.276 1.276 1.384-1.354c0.265-0.239 0.574-0.358 0.926-0.358s0.657 0.129 0.916 0.388c0.266 0.272 0.398 0.582 0.398 0.931s-0.133 0.656-0.398 0.921l-4.754 4.754 14.964 14.964 4.754-4.754c0.266-0.266 0.574-0.398 0.926-0.398s0.661 0.133 0.926 0.398c0.239 0.239 0.363 0.541 0.373 0.906s-0.104 0.677-0.343 0.936l-1.354 1.384 1.276 1.276c0.272 0.279 0.408 0.602 0.408 0.969s-0.136 0.688-0.408 0.96l-2.495 2.495 0.725 0.706c0.272 0.272 0.408 0.592 0.408 0.96s-0.136 0.684-0.408 0.95c-0.272 0.272-0.59 0.408-0.955 0.408s-0.683-0.139-0.955-0.418l-0.706-0.716-2.415 2.415c-0.272 0.272-0.592 0.408-0.96 0.408s-0.688-0.136-0.96-0.408l-1.285-1.276-1.384 1.354c-0.265 0.239-0.572 0.356-0.921 0.353s-0.653-0.134-0.912-0.393c-0.272-0.266-0.408-0.573-0.408-0.922s0.136-0.659 0.408-0.931l4.754-4.754-14.964-14.964z"></path>
</svg>
