<!-- Generated by IcoMoon.io -->
<svg version="1.1" xmlns="http://www.w3.org/2000/svg" width="26" height="32" viewBox="0 0 26 32">
<path d="M2.532 21.497c0.361-0.231 0.754-0.407 1.177-0.527s0.877-0.181 1.362-0.181h1.27v-18.258h-1.27c-0.713 0-1.315 0.246-1.805 0.739s-0.734 1.096-0.734 1.809v16.417zM8.873 20.79h13.441v-18.258h-13.441v18.258zM5.071 30.941c-1.404 0-2.6-0.494-3.588-1.483s-1.483-2.185-1.483-3.588v-20.79c0-1.406 0.494-2.604 1.483-3.595s2.184-1.485 3.588-1.485h17.17c0.723 0 1.337 0.253 1.844 0.76s0.76 1.122 0.76 1.844v19.71c0 0.248-0.064 0.474-0.19 0.675s-0.29 0.344-0.488 0.426c-0.464 0.192-0.829 0.505-1.093 0.939s-0.396 0.935-0.396 1.503 0.131 1.067 0.394 1.498c0.263 0.431 0.626 0.741 1.090 0.928 0.219 0.096 0.388 0.262 0.506 0.5s0.177 0.526 0.177 0.864v0.042c0 0.346-0.123 0.64-0.368 0.884s-0.546 0.366-0.902 0.366h-18.504zM5.053 28.409h15.771c-0.214-0.361-0.381-0.76-0.5-1.197s-0.178-0.884-0.178-1.341c0-0.484 0.060-0.938 0.18-1.362s0.299-0.819 0.536-1.187h-15.807c-0.697 0-1.292 0.246-1.785 0.739s-0.739 1.096-0.739 1.809c0 0.707 0.246 1.308 0.739 1.8s1.087 0.739 1.782 0.739z"></path>
</svg>
