<!-- Generated by IcoMoon.io -->
<svg version="1.1" xmlns="http://www.w3.org/2000/svg" width="32" height="32" viewBox="0 0 32 32">
<path d="M15.44 24.476c-0.299 0-0.58-0.055-0.845-0.165s-0.519-0.287-0.763-0.531l-13.184-13.184c-0.453-0.453-0.669-0.995-0.647-1.625s0.26-1.171 0.713-1.625c0.453-0.453 0.995-0.68 1.625-0.68s1.171 0.227 1.625 0.68l11.475 11.542 11.542-11.542c0.453-0.453 0.984-0.669 1.591-0.647s1.138 0.26 1.591 0.713 0.68 0.995 0.68 1.625c0 0.63-0.227 1.171-0.68 1.625l-13.117 13.117c-0.244 0.244-0.498 0.42-0.763 0.531s-0.546 0.165-0.845 0.165z"></path>
</svg>
