<!-- Generated by IcoMoon.io -->
<svg version="1.1" xmlns="http://www.w3.org/2000/svg" width="32" height="32" viewBox="0 0 32 32">
<path d="M2.595 31.074c-0.701 0-1.309-0.257-1.823-0.772s-0.772-1.122-0.772-1.823v-22.693c0-0.704 0.257-1.313 0.772-1.83s1.122-0.775 1.823-0.775h12.294c0.436 0 0.762 0.135 0.98 0.405s0.326 0.566 0.326 0.89c0 0.324-0.11 0.623-0.329 0.898s-0.542 0.412-0.968 0.412h-12.303v22.693h22.693v-12.408c0-0.427 0.135-0.749 0.405-0.969s0.567-0.329 0.89-0.329 0.623 0.11 0.898 0.329c0.275 0.219 0.412 0.542 0.412 0.969v12.408c0 0.701-0.258 1.309-0.775 1.823s-1.126 0.772-1.83 0.772h-22.693zM9.261 20.515v-4.253c0-0.357 0.071-0.697 0.213-1.021s0.333-0.605 0.573-0.845l13.666-13.657c0.259-0.259 0.547-0.447 0.862-0.563s0.635-0.175 0.957-0.175c0.315 0 0.636 0.065 0.963 0.194s0.624 0.324 0.892 0.582l2.87 2.899c0.255 0.264 0.45 0.553 0.584 0.866s0.202 0.632 0.202 0.956c0 0.326-0.066 0.656-0.197 0.99s-0.328 0.631-0.589 0.892l-13.581 13.657c-0.24 0.24-0.521 0.429-0.845 0.568s-0.664 0.209-1.021 0.209h-4.253c-0.366 0-0.674-0.125-0.924-0.374s-0.374-0.557-0.374-0.924zM11.729 19.345h3.138l9.574-9.575-1.58-1.554-1.587-1.546-9.546 9.498v3.176z"></path>
</svg>
