<!-- Generated by IcoMoon.io -->
<svg version="1.1" xmlns="http://www.w3.org/2000/svg" width="32" height="32" viewBox="0 0 32 32">
<path d="M3.711 30.829c-0.775 0-1.446-0.284-2.015-0.853s-0.853-1.241-0.853-2.015v-25.082c0-0.778 0.284-1.452 0.853-2.022s1.24-0.856 2.015-0.856h11.125c0.405 0 0.745 0.141 1.021 0.421s0.413 0.625 0.413 1.031c0 0.406-0.138 0.746-0.413 1.018s-0.616 0.408-1.021 0.408h-11.125v25.082h11.125c0.405 0 0.745 0.139 1.021 0.416s0.413 0.619 0.413 1.026c0 0.407-0.138 0.747-0.413 1.019s-0.616 0.408-1.021 0.408h-11.125zM26.175 16.854h-13.602c-0.405 0-0.745-0.139-1.021-0.416s-0.413-0.619-0.413-1.026c0-0.407 0.138-0.746 0.413-1.019s0.616-0.408 1.021-0.408h13.517l-3.239-3.239c-0.286-0.288-0.422-0.625-0.408-1.011s0.164-0.721 0.451-1.004c0.286-0.289 0.627-0.432 1.023-0.429s0.739 0.148 1.029 0.434l5.721 5.721c0.279 0.289 0.419 0.624 0.419 1.007s-0.14 0.717-0.419 1.003l-5.679 5.679c-0.281 0.286-0.614 0.424-1.001 0.413s-0.729-0.159-1.026-0.445c-0.275-0.286-0.415-0.628-0.419-1.025s0.141-0.74 0.435-1.027l3.197-3.207z"></path>
</svg>
