<!-- Generated by IcoMoon.io -->
<svg version="1.1" xmlns="http://www.w3.org/2000/svg" width="29" height="32" viewBox="0 0 29 32">
<path d="M6.186 30.941c-0.368 0-0.676-0.125-0.922-0.374s-0.369-0.557-0.369-0.924v-12.993c-1.521-0.381-2.717-1.102-3.588-2.163s-1.307-2.303-1.307-3.725v-9.491c0-0.356 0.123-0.657 0.368-0.902s0.545-0.368 0.901-0.368 0.655 0.123 0.898 0.368c0.243 0.245 0.365 0.546 0.365 0.902v8.194h2.4v-8.194c0-0.356 0.123-0.657 0.368-0.902s0.545-0.368 0.901-0.368 0.655 0.123 0.898 0.368c0.243 0.245 0.365 0.546 0.365 0.902v8.194h2.438v-8.194c0-0.356 0.123-0.657 0.368-0.902s0.546-0.368 0.901-0.368 0.655 0.123 0.898 0.368c0.243 0.245 0.365 0.546 0.365 0.902v9.474c0 1.428-0.439 2.667-1.317 3.719s-2.086 1.778-3.626 2.176v13.004c0 0.366-0.125 0.674-0.376 0.924s-0.56 0.374-0.928 0.374zM22.347 30.941c-0.368 0-0.675-0.125-0.921-0.374s-0.369-0.557-0.369-0.924v-13.651c-1.454-0.518-2.615-1.479-3.484-2.885s-1.304-3.070-1.304-4.992c0-2.256 0.594-4.173 1.783-5.75s2.623-2.365 4.303-2.365c1.68 0 3.114 0.791 4.303 2.373s1.783 3.496 1.783 5.742c0 1.918-0.435 3.583-1.304 4.994s-2.027 2.385-3.475 2.924v13.611c0 0.366-0.127 0.674-0.381 0.924s-0.566 0.374-0.933 0.374z"></path>
</svg>
