<!-- Generated by IcoMoon.io -->
<svg version="1.1" xmlns="http://www.w3.org/2000/svg" width="32" height="32" viewBox="0 0 32 32">
<path d="M32 15.627c0 7.378-3.929 16.373-15.769 16.373-8.898 0.059-16.163-7.102-16.231-16 0.068-8.898 7.333-16.059 16.231-16 3.681 0.014 7.251 1.266 10.133 3.556 0.199 0.163 0.322 0.401 0.338 0.658 0.001 0.26-0.101 0.509-0.284 0.693-1.157 1.058-2.261 2.174-3.307 3.342-0.304 0.335-0.814 0.381-1.173 0.107-1.642-1.216-3.647-1.842-5.689-1.778-5.253 0-9.511 4.258-9.511 9.511s4.258 9.511 9.511 9.511c5.333 0 7.591-2.276 8.764-6.311h-8.124c-0.491 0-0.889-0.398-0.889-0.889v-4.711c0-0.491 0.398-0.889 0.889-0.889h14.222c0.409-0.003 0.755 0.304 0.8 0.711 0.066 0.703 0.096 1.409 0.089 2.116z"></path>
</svg>
