<!-- Generated by IcoMoon.io -->
<svg version="1.1" xmlns="http://www.w3.org/2000/svg" width="35" height="32" viewBox="0 0 35 32">
<path d="M29.116 30.779c-1.225 0-2.282-0.364-3.172-1.092s-1.45-1.6-1.681-2.617h-8.747c-1.875 0-3.427-0.615-4.657-1.846s-1.845-2.785-1.845-4.661c0-1.869 0.615-3.42 1.845-4.651s2.782-1.846 4.657-1.846h3.242c1.129 0 2.054-0.361 2.774-1.082s1.081-1.646 1.081-2.776-0.36-2.054-1.081-2.773c-0.721-0.72-1.646-1.080-2.774-1.080h-8.863c-0.266 1.016-0.837 1.888-1.712 2.616s-1.926 1.092-3.151 1.092c-1.407 0-2.598-0.487-3.571-1.461s-1.46-2.164-1.46-3.571c0-1.407 0.487-2.598 1.46-3.571s2.164-1.46 3.571-1.46c1.225 0 2.275 0.364 3.151 1.092s1.446 1.6 1.712 2.616h8.863c1.873 0 3.425 0.615 4.656 1.846s1.846 2.783 1.846 4.656-0.616 3.425-1.846 4.656c-1.231 1.231-2.783 1.846-4.656 1.846h-3.242c-1.131 0-2.056 0.36-2.776 1.080s-1.080 1.643-1.080 2.771c0 1.134 0.36 2.061 1.080 2.781s1.645 1.080 2.776 1.080h8.747c0.259-1.016 0.827-1.888 1.702-2.616s1.926-1.092 3.151-1.092c1.407 0 2.598 0.487 3.571 1.461s1.46 2.164 1.46 3.571c0 1.407-0.487 2.598-1.46 3.571s-2.164 1.46-3.571 1.46zM5.032 7.305c0.646 0 1.186-0.218 1.621-0.653s0.653-0.975 0.653-1.621c0-0.646-0.218-1.186-0.653-1.621s-0.975-0.653-1.621-0.653c-0.646 0-1.186 0.218-1.621 0.653s-0.653 0.975-0.653 1.621c0 0.646 0.218 1.186 0.653 1.621s0.975 0.653 1.621 0.653z"></path>
</svg>
