<!-- Generated by IcoMoon.io -->
<svg version="1.1" xmlns="http://www.w3.org/2000/svg" width="75" height="32" viewBox="0 0 75 32">
<path fill="#33adc1" d="M24.175 16c0 5.817-4.715 10.532-10.532 10.532-0.218 0-0.435-0.006-0.65-0.020-0.901-0.055-1.772-0.223-2.598-0.491-0.314-0.101-0.622-0.218-0.922-0.347-3.743-1.615-6.362-5.339-6.362-9.674 0-5.817 4.715-10.532 10.532-10.532s10.532 4.715 10.532 10.532z"></path>
<path fill="#eae0d3" d="M12.993 26.512c-1.244-0.076-2.43-0.368-3.52-0.838 4.079-5.499-2.982-10.736-2.982-10.736l3.56-0.879c0-0 7.619 4.647 2.942 12.453z"></path>
<path fill="#d6c8b0" d="M10.395 26.021c-0.314-0.101-0.622-0.218-0.922-0.347 4.079-5.499-2.982-10.736-2.982-10.736l1.029-0.254c0.249 0.187 0.598 0.429 0.955 0.763 1.857 1.735 4.551 5.426 1.921 10.575z"></path>
<path fill="#eae0d3" d="M12.592 11.329c0 2.274-1.843 4.117-4.117 4.117s-4.117-1.843-4.117-4.117c0-0.34 0.041-0.669 0.119-0.985s0.191-0.617 0.337-0.899l-1.701-1.701 2.788 0.373-1.43-1.773 3.27 0.934-0.356-1.809c0 0 2.845 1.573 4.196 3.156 0.102 0.117 0.198 0.241 0.287 0.369 0.458 0.664 0.727 1.468 0.727 2.336z"></path>
<path fill="#2f373b" d="M10.688 10.489c0 0.557-0.451 1.008-1.008 1.008s-1.008-0.452-1.008-1.008c0-0.557 0.451-1.008 1.008-1.008s1.008 0.451 1.008 1.008z"></path>
<path fill="#ff648d" d="M20.139 11.155c-0.414 0.216-0.85 0.167-1.201 0.051-0.41-0.135-0.701-0.361-0.701-0.361s-1.474-1.447-0.34-2.078c0.343-0.19 0.62-0.189 0.84-0.095h0c0.509 0.218 0.714 0.935 0.714 0.935s0.411-1.065 1.319-0.742c0.908 0.322 0.266 1.821-0.632 2.29z"></path>
<path fill="#ea2f69" d="M18.938 11.206c-0.41-0.135-0.701-0.361-0.701-0.361s-1.474-1.447-0.34-2.078c0.343-0.19 0.62-0.189 0.84-0.095-0.502-0.028-0.518 1.822 0.201 2.534z"></path>
<path fill="#fff" d="M10.4 10.167c0 0.174-0.141 0.315-0.315 0.315s-0.315-0.141-0.315-0.315c0-0.174 0.141-0.315 0.315-0.315s0.315 0.141 0.315 0.315z"></path>
<path fill="#ff648d" d="M18.606 11.642c0 1.536-4.181 6.2-1.45 8.132 0.683 0.483 1.436 0.641 2.183 0.605 0.746 0.036 1.5-0.122 2.183-0.605 2.731-1.933-1.45-6.596-1.45-8.132z"></path>
<path fill="#ea2f69" d="M19.226 20.384c-0.71 0.015-1.422-0.15-2.070-0.609-2.731-1.933 1.45-6.596 1.45-8.132h0.448c0 1.536-1.625 6.2-0.563 8.132 0.231 0.42 0.483 0.595 0.735 0.609z"></path>
<path fill="#ea2f69" d="M19.226 20.383c0.037-0 0.075-0.002 0.112-0.003-0.037 0.005-0.075 0.006-0.112 0.003z"></path>
<path fill="#ea2f69" d="M19.451 20.383c-0.037 0.003-0.075 0.001-0.112-0.003 0.037 0.002 0.075 0.003 0.112 0.003z"></path>
<path fill="#ffd62c" d="M22.087 11.372l-10.42 1.722c0 0-0.364-0.552-0.496-1.283-0.118-0.652-0.052-1.447 0.622-2.121l10.294 1.681z"></path>
<path fill="#ffb92e" d="M22.087 11.372l-10.42 1.722c0 0-0.364-0.552-0.496-1.283l10.916-0.44z"></path>
<path fill="#d6c8b0" d="M8.475 15.447c-2.274 0-4.117-1.843-4.117-4.117 0-0.34 0.041-0.669 0.119-0.985s0.191-0.617 0.337-0.899l-1.701-1.701 2.788 0.373-1.43-1.773 3.333 1.876c0 0-2.059 0.757-2.059 3.151s2.731 4.075 2.731 4.075z"></path>
<path fill="#000" d="M67.267 20.584c-0.568 0-1.078-0.14-1.53-0.42-0.452-0.288-0.81-0.674-1.075-1.156-0.257-0.491-0.385-1.043-0.385-1.658s0.14-1.168 0.42-1.658c0.288-0.491 0.674-0.876 1.156-1.156 0.491-0.288 1.040-0.432 1.647-0.432s1.152 0.144 1.635 0.432c0.483 0.28 0.864 0.666 1.145 1.156 0.288 0.491 0.432 1.043 0.432 1.658h-0.455c0 0.615-0.132 1.168-0.397 1.658-0.257 0.483-0.611 0.868-1.063 1.156-0.452 0.28-0.962 0.42-1.53 0.42zM67.501 19.533c0.397 0 0.751-0.093 1.063-0.28 0.311-0.195 0.557-0.455 0.736-0.782 0.179-0.335 0.269-0.709 0.269-1.121 0-0.42-0.090-0.794-0.269-1.121-0.179-0.335-0.424-0.596-0.736-0.783-0.311-0.195-0.666-0.292-1.063-0.292-0.389 0-0.744 0.097-1.063 0.292-0.311 0.187-0.561 0.448-0.747 0.783-0.179 0.327-0.269 0.701-0.269 1.121 0 0.413 0.090 0.786 0.269 1.121 0.187 0.327 0.436 0.588 0.747 0.782 0.319 0.187 0.674 0.28 1.063 0.28zM70.117 20.549c-0.171 0-0.315-0.054-0.432-0.163-0.109-0.117-0.163-0.261-0.163-0.432v-1.787l0.222-1.238 0.969 0.42v2.604c0 0.171-0.058 0.315-0.175 0.432-0.109 0.109-0.249 0.163-0.42 0.163z"></path>
<path fill="#000" d="M63.423 20.398c-0.101 0.093-0.245 0.14-0.432 0.14-0.179-0.008-0.319-0.062-0.42-0.163l-2.838-3.048 2.675-2.99c0.101-0.109 0.241-0.171 0.42-0.187 0.187-0.016 0.331 0.023 0.432 0.117 0.117 0.109 0.183 0.234 0.199 0.374 0.016 0.132-0.027 0.253-0.129 0.362l-2.114 2.266 2.242 2.406c0.101 0.101 0.152 0.222 0.152 0.362 0 0.132-0.062 0.253-0.187 0.362zM58.798 20.549c-0.171 0-0.308-0.055-0.409-0.164-0.101-0.117-0.152-0.261-0.152-0.432v-5.209c0-0.179 0.051-0.323 0.152-0.432s0.237-0.164 0.409-0.164c0.179 0 0.323 0.054 0.432 0.164 0.117 0.109 0.175 0.253 0.175 0.432v1.95h1.495v1.098h-1.495v2.161c0 0.171-0.058 0.315-0.175 0.432-0.109 0.109-0.253 0.164-0.432 0.164z"></path>
<path fill="#000" d="M53.868 20.584c-0.646 0-1.222-0.136-1.728-0.409-0.498-0.28-0.891-0.662-1.18-1.145-0.28-0.491-0.42-1.051-0.42-1.682 0-0.638 0.132-1.199 0.397-1.682 0.273-0.491 0.646-0.872 1.121-1.145 0.475-0.28 1.020-0.42 1.635-0.42 0.607 0 1.129 0.136 1.565 0.409 0.436 0.265 0.767 0.635 0.993 1.109 0.234 0.467 0.35 1.008 0.35 1.623 0 0.148-0.051 0.273-0.152 0.374-0.101 0.093-0.23 0.14-0.385 0.14h-4.707v-0.934h4.672l-0.479 0.327c-0.008-0.389-0.086-0.736-0.234-1.039-0.148-0.311-0.358-0.557-0.631-0.736s-0.603-0.269-0.993-0.269c-0.444 0-0.825 0.097-1.145 0.292-0.311 0.195-0.549 0.463-0.712 0.806-0.163 0.335-0.245 0.716-0.245 1.145s0.097 0.81 0.292 1.145c0.195 0.335 0.463 0.599 0.806 0.794s0.736 0.292 1.18 0.292c0.241 0 0.487-0.043 0.736-0.128 0.257-0.093 0.463-0.199 0.619-0.315 0.117-0.086 0.241-0.128 0.374-0.128 0.14-0.008 0.261 0.031 0.362 0.117 0.132 0.117 0.202 0.245 0.21 0.385s-0.054 0.261-0.187 0.362c-0.265 0.21-0.596 0.381-0.993 0.514-0.389 0.132-0.763 0.199-1.121 0.199z"></path>
<path fill="#000" d="M46.29 14.16c0.117 0 0.222 0.031 0.315 0.093s0.167 0.16 0.222 0.292l2.406 5.221c0.070 0.156 0.078 0.296 0.023 0.42-0.054 0.117-0.148 0.206-0.28 0.269-0.171 0.078-0.319 0.097-0.444 0.058s-0.23-0.136-0.315-0.292l-2.196-4.987h0.596l-2.266 4.987c-0.070 0.148-0.175 0.245-0.315 0.292-0.132 0.039-0.28 0.020-0.444-0.058-0.148-0.070-0.253-0.164-0.315-0.28-0.055-0.117-0.043-0.253 0.035-0.409l2.418-5.221c0.117-0.257 0.304-0.385 0.561-0.385z"></path>
<path fill="#000" d="M39.526 20.584c-0.646 0-1.222-0.136-1.728-0.409-0.498-0.28-0.892-0.662-1.18-1.145-0.28-0.491-0.42-1.051-0.42-1.682 0-0.638 0.132-1.199 0.397-1.682 0.273-0.491 0.646-0.872 1.121-1.145 0.475-0.28 1.020-0.42 1.635-0.42 0.607 0 1.129 0.136 1.565 0.409 0.436 0.265 0.767 0.635 0.993 1.109 0.234 0.467 0.35 1.008 0.35 1.623 0 0.148-0.051 0.273-0.152 0.374-0.101 0.093-0.23 0.14-0.385 0.14h-4.707v-0.934h4.672l-0.479 0.327c-0.008-0.389-0.086-0.736-0.234-1.039-0.148-0.311-0.358-0.557-0.631-0.736s-0.603-0.269-0.993-0.269c-0.444 0-0.825 0.097-1.145 0.292-0.311 0.195-0.549 0.463-0.712 0.806-0.164 0.335-0.245 0.716-0.245 1.145s0.097 0.81 0.292 1.145c0.195 0.335 0.463 0.599 0.806 0.794s0.736 0.292 1.18 0.292c0.241 0 0.487-0.043 0.736-0.128 0.257-0.093 0.463-0.199 0.619-0.315 0.117-0.086 0.241-0.128 0.374-0.128 0.14-0.008 0.261 0.031 0.362 0.117 0.132 0.117 0.202 0.245 0.21 0.385s-0.054 0.261-0.187 0.362c-0.265 0.21-0.596 0.381-0.993 0.514-0.389 0.132-0.763 0.199-1.121 0.199z"></path>
<path fill="#000" d="M28.111 20.537c-0.218 0-0.385-0.093-0.502-0.28s-0.128-0.385-0.035-0.596l3.282-7.837c0.117-0.273 0.308-0.409 0.572-0.409 0.28 0 0.471 0.136 0.572 0.409l3.293 7.86c0.086 0.218 0.074 0.417-0.035 0.596-0.101 0.171-0.265 0.257-0.491 0.257-0.117 0-0.23-0.031-0.339-0.093-0.101-0.070-0.175-0.163-0.222-0.28l-2.92-7.194h0.374l-2.99 7.194c-0.054 0.125-0.136 0.218-0.245 0.28-0.101 0.062-0.206 0.093-0.315 0.093z"></path>
</svg>
