<!-- Generated by IcoMoon.io -->
<svg version="1.1" xmlns="http://www.w3.org/2000/svg" width="29" height="32" viewBox="0 0 29 32">
<path d="M9.152 22.006c-1.037 0-1.911-0.358-2.622-1.074s-1.067-1.592-1.067-2.629c0-1.037 0.358-1.911 1.074-2.622s1.592-1.067 2.629-1.067c1.036 0 1.91 0.358 2.621 1.074s1.067 1.592 1.067 2.629c0 1.037-0.358 1.91-1.074 2.621s-1.592 1.067-2.629 1.067zM2.595 30.941c-0.701 0-1.309-0.257-1.823-0.772s-0.772-1.122-0.772-1.823v-23.455c0-0.704 0.257-1.313 0.772-1.83s1.122-0.775 1.823-0.775h2.394v-0.985c0-0.364 0.126-0.672 0.379-0.924s0.561-0.377 0.923-0.377c0.373 0 0.688 0.126 0.944 0.377s0.384 0.559 0.384 0.924v0.985h12.642v-0.985c0-0.364 0.127-0.672 0.38-0.924s0.561-0.377 0.923-0.377c0.373 0 0.688 0.126 0.944 0.377s0.384 0.559 0.384 0.924v0.985h2.394c0.704 0 1.314 0.258 1.83 0.775s0.775 1.126 0.775 1.83v23.455c0 0.701-0.258 1.309-0.775 1.823s-1.126 0.772-1.83 0.772h-22.693zM2.595 28.345h22.693v-16.299h-22.693v16.299zM2.595 9.761h22.693v-4.87h-22.693v4.87z"></path>
</svg>
