<!-- Generated by IcoMoon.io -->
<svg version="1.1" xmlns="http://www.w3.org/2000/svg" width="32" height="32" viewBox="0 0 32 32">
<path d="M5.674 23.946c1.594-1.105 3.175-1.953 4.744-2.544s3.253-0.886 5.052-0.886c1.8 0 3.492 0.298 5.076 0.893s3.167 1.441 4.75 2.537c1.106-1.378 1.889-2.751 2.349-4.12s0.691-2.82 0.691-4.351c0-3.654-1.231-6.712-3.694-9.176s-5.521-3.695-9.174-3.695c-3.653 0-6.712 1.232-9.176 3.695s-3.696 5.522-3.696 9.176c0 1.531 0.235 2.98 0.706 4.348s1.261 2.742 2.373 4.123zM15.459 16.681c-1.488 0-2.737-0.508-3.749-1.525s-1.518-2.267-1.518-3.751 0.508-2.733 1.525-3.748c1.017-1.015 2.269-1.523 3.756-1.523s2.737 0.51 3.749 1.53c1.012 1.020 1.518 2.272 1.518 3.755s-0.508 2.732-1.525 3.744c-1.017 1.012-2.269 1.518-3.756 1.518zM15.479 30.941c-2.121 0-4.122-0.405-6.003-1.216s-3.525-1.92-4.932-3.327c-1.407-1.407-2.517-3.048-3.328-4.923s-1.216-3.878-1.216-6.010c0-2.125 0.406-4.123 1.218-5.995s1.921-3.51 3.326-4.915c1.405-1.405 3.045-2.516 4.921-3.331s3.879-1.223 6.011-1.223c2.125 0 4.123 0.408 5.995 1.223s3.51 1.926 4.915 3.331c1.405 1.405 2.516 3.044 3.331 4.917s1.223 3.87 1.223 5.991c0 2.121-0.408 4.122-1.223 6.004s-1.926 3.525-3.331 4.93c-1.405 1.405-3.044 2.514-4.917 3.326s-3.87 1.218-5.991 1.218zM15.466 28.345c1.379 0 2.719-0.197 4.023-0.591s2.602-1.090 3.897-2.088c-1.301-0.908-2.607-1.596-3.916-2.063s-2.644-0.701-4.003-0.701-2.692 0.234-3.999 0.701c-1.306 0.467-2.61 1.155-3.912 2.063 1.295 0.998 2.593 1.694 3.893 2.088s2.639 0.591 4.018 0.591zM15.466 14.286c0.845 0 1.535-0.267 2.073-0.801s0.806-1.225 0.806-2.073-0.269-1.541-0.806-2.078c-0.537-0.537-1.228-0.806-2.073-0.806s-1.535 0.269-2.073 0.806c-0.537 0.537-0.806 1.229-0.806 2.078s0.269 1.539 0.806 2.073c0.537 0.534 1.228 0.801 2.073 0.801z"></path>
</svg>
