<!-- Generated by IcoMoon.io -->
<svg version="1.1" xmlns="http://www.w3.org/2000/svg" width="39" height="32" viewBox="0 0 39 32">
<path d="M6.844 31.071c-0.383 0-0.718-0.146-1.004-0.437s-0.429-0.629-0.429-1.013v-1.874h-0.547c-1.351 0-2.5-0.473-3.445-1.418s-1.418-2.094-1.418-3.445v-10.274c0-1.447 0.433-2.561 1.3-3.34s1.893-1.193 3.079-1.24v-3.42c0-1.356 0.429-2.463 1.288-3.322s1.967-1.288 3.322-1.288h19.579c1.355 0 2.456 0.429 3.301 1.288s1.267 1.967 1.267 3.322v3.42c1.186 0.047 2.212 0.46 3.079 1.24s1.3 1.893 1.3 3.34v10.274c0 1.351-0.473 2.499-1.418 3.445s-2.094 1.418-3.445 1.418h-0.547v1.874c0 0.384-0.143 0.722-0.429 1.013s-0.621 0.437-1.005 0.437-0.719-0.146-1.005-0.437c-0.286-0.291-0.429-0.629-0.429-1.013v-1.874h-20.947v1.877c0 0.385-0.145 0.723-0.435 1.012s-0.627 0.435-1.010 0.435zM4.863 24.879h27.789c0.53 0 0.995-0.201 1.395-0.603s0.6-0.866 0.6-1.392v-10.274c0-0.525-0.159-0.947-0.476-1.265s-0.739-0.477-1.267-0.477c-0.528 0-0.95 0.159-1.266 0.477s-0.475 0.74-0.475 1.265v7.521h-24.811v-7.521c0-0.525-0.159-0.947-0.476-1.265s-0.739-0.477-1.267-0.477c-0.527 0-0.949 0.159-1.266 0.477s-0.475 0.74-0.475 1.265v10.274c0 0.526 0.201 0.99 0.603 1.392s0.866 0.603 1.392 0.603zM9.221 17.263h19.074v-4.653c0-0.896 0.204-1.653 0.614-2.27s0.862-1.11 1.36-1.478v-4.252c0-0.53-0.158-0.953-0.473-1.269s-0.735-0.473-1.258-0.473h-19.559c-0.518 0-0.937 0.158-1.254 0.473s-0.477 0.739-0.477 1.269v4.252c0.497 0.368 0.951 0.861 1.36 1.478s0.613 1.374 0.613 2.27v4.653z"></path>
</svg>
