<!-- Generated by IcoMoon.io -->
<svg version="1.1" xmlns="http://www.w3.org/2000/svg" width="19" height="32" viewBox="0 0 19 32">
<path stroke-linejoin="miter" stroke-linecap="butt" stroke-miterlimit="4" stroke-width="2.6667" stroke="#000" fill="#000" d="M2.339 1.333c0.269 0 0.474 0.081 0.682 0.289l13.185 13.185c0.144 0.144 0.211 0.256 0.242 0.331v0.003c0.039 0.095 0.063 0.201 0.063 0.331s-0.023 0.236-0.063 0.331v0.003c-0.031 0.075-0.099 0.187-0.242 0.331l-13.25 13.25c-0.207 0.207-0.386 0.266-0.602 0.258-0.251-0.009-0.466-0.094-0.695-0.323-0.208-0.208-0.292-0.413-0.292-0.682s0.083-0.474 0.292-0.682l12.484-12.484-12.552-12.552c-0.207-0.207-0.266-0.384-0.258-0.599 0.009-0.251 0.096-0.468 0.326-0.698 0.208-0.208 0.411-0.289 0.68-0.289z"></path>
</svg>
