<!-- Generated by IcoMoon.io -->
<svg version="1.1" xmlns="http://www.w3.org/2000/svg" width="37" height="32" viewBox="0 0 37 32">
<path d="M31.065 21.648c0.307-0.302 0.669-0.453 1.085-0.453s0.777 0.151 1.084 0.453l2.715 2.759c0.302 0.303 0.453 0.657 0.453 1.062s-0.151 0.759-0.454 1.065c-0.303 0.306-0.657 0.458-1.065 0.458s-0.763-0.154-1.067-0.464l-2.749-2.715c-0.309-0.305-0.463-0.666-0.463-1.085s0.153-0.779 0.46-1.081zM32.235 0.459c0.302 0.306 0.453 0.667 0.453 1.085s-0.151 0.776-0.453 1.076l-2.715 2.726c-0.309 0.302-0.671 0.453-1.087 0.453s-0.776-0.152-1.079-0.456c-0.309-0.306-0.463-0.669-0.463-1.087s0.154-0.777 0.463-1.077l2.749-2.726c0.305-0.302 0.662-0.453 1.068-0.453s0.762 0.153 1.064 0.459zM4.16 0.458c0.304-0.305 0.665-0.458 1.083-0.458s0.779 0.151 1.081 0.453l2.726 2.76c0.302 0.305 0.453 0.661 0.453 1.068s-0.15 0.762-0.449 1.064c-0.3 0.302-0.654 0.453-1.063 0.453s-0.763-0.151-1.063-0.453l-2.77-2.726c-0.302-0.303-0.453-0.662-0.453-1.078s0.152-0.777 0.456-1.083zM5.334 21.651c0.302 0.303 0.453 0.664 0.453 1.083s-0.151 0.778-0.453 1.081l-2.715 2.715c-0.305 0.309-0.666 0.464-1.085 0.464s-0.779-0.15-1.081-0.451c-0.302-0.301-0.453-0.655-0.453-1.063s0.151-0.765 0.453-1.072l2.76-2.759c0.303-0.302 0.657-0.453 1.062-0.453s0.758 0.152 1.060 0.456zM11.626 26.224l6.572-3.947 6.583 3.992-1.761-7.454 5.804-5.057-7.641-0.669-2.987-7.052-2.973 7.007-7.644 0.68 5.808 5.049-1.761 7.45zM18.196 25.817l-8.054 4.861c-0.272 0.176-0.561 0.25-0.867 0.223s-0.574-0.123-0.807-0.285c-0.233-0.162-0.408-0.378-0.525-0.649s-0.14-0.575-0.067-0.914l2.125-9.178-7.119-6.217c-0.265-0.229-0.425-0.488-0.48-0.776s-0.049-0.568 0.017-0.839c0.066-0.271 0.219-0.5 0.459-0.688s0.528-0.297 0.867-0.326l9.403-0.828 3.634-8.672c0.125-0.309 0.321-0.539 0.586-0.69s0.538-0.227 0.818-0.227 0.556 0.076 0.827 0.227c0.271 0.151 0.471 0.381 0.599 0.69l3.642 8.676 9.406 0.823c0.332 0.030 0.617 0.138 0.856 0.326s0.392 0.417 0.459 0.688c0.066 0.271 0.074 0.551 0.022 0.84s-0.21 0.548-0.476 0.776l-7.119 6.217 2.124 9.188c0.066 0.332 0.038 0.632-0.084 0.9s-0.294 0.492-0.514 0.671c-0.229 0.159-0.496 0.25-0.801 0.273s-0.594-0.051-0.866-0.22l-8.065-4.871z"></path>
</svg>
