<!-- Generated by IcoMoon.io -->
<svg version="1.1" xmlns="http://www.w3.org/2000/svg" width="29" height="32" viewBox="0 0 29 32">
<path d="M4.776 31.011c-0.799 0-1.478-0.279-2.038-0.837s-0.84-1.236-0.84-2.031v-23.829h-0.463c-0.405 0-0.745-0.139-1.021-0.416s-0.413-0.619-0.413-1.026c0-0.407 0.138-0.747 0.413-1.019s0.616-0.408 1.021-0.408h6.914c0-0.412 0.138-0.755 0.414-1.031s0.616-0.413 1.021-0.413h8.579c0.405 0 0.745 0.14 1.021 0.419s0.413 0.621 0.413 1.025h6.924c0.405 0 0.745 0.139 1.021 0.416s0.413 0.619 0.413 1.026c0 0.407-0.138 0.747-0.413 1.019s-0.616 0.408-1.021 0.408h-0.463v23.829c0 0.796-0.28 1.473-0.84 2.031s-1.24 0.837-2.038 0.837h-18.603zM23.379 4.313h-18.603v23.829h18.603v-23.829zM14.078 18.258l3.962 3.994c0.294 0.301 0.651 0.456 1.071 0.467s0.78-0.138 1.081-0.446c0.294-0.317 0.441-0.676 0.441-1.077s-0.147-0.753-0.441-1.053l-3.962-4.036 3.962-4.046c0.294-0.294 0.441-0.644 0.441-1.050s-0.147-0.759-0.441-1.060c-0.301-0.294-0.661-0.441-1.081-0.441s-0.777 0.147-1.071 0.441l-3.962 4.004-3.92-4.004c-0.294-0.294-0.649-0.441-1.066-0.441s-0.775 0.147-1.076 0.441c-0.294 0.301-0.441 0.661-0.441 1.081s0.147 0.777 0.441 1.071l3.952 4.004-3.952 4.004c-0.301 0.294-0.449 0.649-0.446 1.066s0.152 0.775 0.446 1.076c0.303 0.294 0.662 0.441 1.077 0.441s0.774-0.147 1.075-0.441l3.909-3.994z"></path>
</svg>
