<!-- Generated by IcoMoon.io -->
<svg version="1.1" xmlns="http://www.w3.org/2000/svg" width="55" height="32" viewBox="0 0 55 32">
<path d="M26.408 9.551l-19.786 19.786c-0.777 0.777-1.687 1.147-2.728 1.109s-1.951-0.446-2.728-1.223c-0.777-0.777-1.166-1.706-1.166-2.785s0.389-2.008 1.166-2.785l22.487-22.487c0.777-0.777 1.696-1.166 2.755-1.166s1.978 0.389 2.755 1.166l22.601 22.601c0.777 0.777 1.166 1.686 1.166 2.728s-0.389 1.951-1.166 2.728c-0.777 0.777-1.706 1.166-2.785 1.166s-2.008-0.389-2.785-1.166l-19.786-19.672z"></path>
</svg>
